<svg xmlns="http://www.w3.org/2000/svg" viewBox="0 0 64 64" role="img" aria-label="Once de Oro">
  <!-- La pelota del juego, dibujada con geometria y NO con el emoji ⚽: el emoji
       lo dibuja cada sistema con su propio set, y por eso en el celular salia
       una pelota distinta a la del navegador. -->
  <defs>
    <clipPath id="bola"><circle cx="32.0" cy="32.0" r="29.0"/></clipPath>
  </defs>
  <circle cx="32.0" cy="32.0" r="29.0" fill="#f5c542"/>
  <g clip-path="url(#bola)" fill="#0a0f1a">
    <path d="M 32.00 20.40 L 43.03 28.42 L 38.82 41.38 L 25.18 41.38 L 20.97 28.42 Z"/>
    <path d="M 53.85 8.52 L 51.46 15.90 L 43.70 15.90 L 41.30 8.52 L 47.58 3.96 Z"/>
    <path d="M 61.08 45.53 L 53.32 45.53 L 50.93 38.15 L 57.20 33.59 L 63.48 38.15 Z"/>
    <path d="M 28.12 63.84 L 25.72 56.46 L 32.00 51.90 L 38.28 56.46 L 35.88 63.84 Z"/>
    <path d="M 0.52 38.15 L 6.80 33.59 L 13.07 38.15 L 10.68 45.53 L 2.92 45.53 Z"/>
    <path d="M 16.42 3.96 L 22.70 8.52 L 20.30 15.90 L 12.54 15.90 L 10.15 8.52 Z"/>
  </g>
  <circle cx="32.0" cy="32.0" r="29.0" fill="none" stroke="#0a0f1a" stroke-width="2.2"/>
</svg>
